<svg width="44" height="44" viewBox="0 0 44 44" fill="none" xmlns="http://www.w3.org/2000/svg">
<rect width="44" height="44" fill="#F5F5F5"/>
<g id="HomePage" clip-path="url(#clip0_1_282)">
<rect width="1920" height="8616" transform="translate(-1164 -8087)" fill="white"/>
<g id="Footer">
<g id="Content">
<g id="Background">
<path id="Background_2" d="M-1071.48 -101.815H663.048V454.97H-1071.48V-101.815Z" fill="#E5F2EF"/>
<mask id="mask0_1_282" style="mask-type:alpha" maskUnits="userSpaceOnUse" x="-1072" y="-102" width="1736" height="557">
<path id="Background_3" d="M-1071.48 -101.815H663.048V454.97H-1071.48V-101.815Z" fill="#E5F2EF"/>
</mask>
<g mask="url(#mask0_1_282)">
<path id="Pattern" d="M1149.32 360.667C1139.55 352.543 786.89 -90.9369 477.597 309.885C230.163 630.543 -36.2042 973.015 -138.459 1104.17" stroke="#F2FFFC" stroke-width="3"/>
</g>
</g>
<g id="Content_2">
<g id="1">
<g id="Contact Details">
<g id="Mail">
<circle id="Ellipse 6" cx="21.9929" cy="21.9001" r="21.5574" fill="#0FE3AF"/>
<path id="Vector" d="M28.9269 15.2324H15.7591C15.1772 15.233 14.6194 15.4574 14.2079 15.8564C13.7965 16.2554 13.5651 16.7963 13.5645 17.3606V26.4811C13.5651 27.0454 13.7965 27.5863 14.2079 27.9853C14.6194 28.3843 15.1772 28.6087 15.7591 28.6093H28.9269C29.5088 28.6087 30.0667 28.3843 30.4781 27.9853C30.8895 27.5863 31.121 27.0454 31.1216 26.4811V17.3606C31.121 16.7963 30.8895 16.2554 30.4781 15.8564C30.0667 15.4574 29.5088 15.233 28.9269 15.2324V15.2324ZM28.3712 18.7526L22.7279 23.0089C22.6178 23.0918 22.4824 23.1369 22.343 23.1369C22.2036 23.1369 22.0682 23.0918 21.9582 23.0089L16.3148 18.7526C16.2485 18.704 16.1928 18.6432 16.151 18.5736C16.1091 18.504 16.082 18.427 16.0711 18.3471C16.0602 18.2673 16.0657 18.1861 16.0875 18.1083C16.1092 18.0305 16.1467 17.9577 16.1977 17.8941C16.2487 17.8305 16.3122 17.7774 16.3846 17.7378C16.4569 17.6982 16.5367 17.673 16.6192 17.6635C16.7017 17.6541 16.7853 17.6606 16.8652 17.6828C16.9451 17.705 17.0196 17.7423 17.0845 17.7926L22.343 21.7586L27.6015 17.7926C27.733 17.6964 27.8983 17.6541 28.0617 17.6751C28.225 17.696 28.3733 17.7785 28.4744 17.9046C28.5756 18.0308 28.6214 18.1905 28.6021 18.3491C28.5828 18.5078 28.4999 18.6527 28.3712 18.7526Z" fill="#0152A8"/>
</g>
</g>
</g>
</g>
</g>
</g>
</g>
<defs>
<clipPath id="clip0_1_282">
<rect width="1920" height="8616" fill="white" transform="translate(-1164 -8087)"/>
</clipPath>
</defs>
</svg>
