<svg width="44" height="44" viewBox="0 0 44 44" fill="none" xmlns="http://www.w3.org/2000/svg">
<rect width="44" height="44" fill="#F5F5F5"/>
<g id="HomePage" clip-path="url(#clip0_1_282)">
<rect width="1920" height="8616" transform="translate(-897 -8087)" fill="white"/>
<g id="Footer">
<g id="Content">
<g id="Background">
<path id="Background_2" d="M-804.479 -101.815H930.048V454.97H-804.479V-101.815Z" fill="#E5F2EF"/>
<mask id="mask0_1_282" style="mask-type:alpha" maskUnits="userSpaceOnUse" x="-805" y="-102" width="1736" height="557">
<path id="Background_3" d="M-804.479 -101.815H930.048V454.97H-804.479V-101.815Z" fill="#E5F2EF"/>
</mask>
<g mask="url(#mask0_1_282)">
<path id="Pattern" d="M1416.32 360.667C1406.55 352.543 1053.89 -90.9369 744.597 309.885C497.163 630.543 230.796 973.015 128.541 1104.17" stroke="#F2FFFC" stroke-width="3"/>
</g>
</g>
<g id="Content_2">
<g id="1">
<g id="Contact Details">
<g id="Call">
<circle id="Ellipse 6" cx="22.1707" cy="21.9001" r="21.5574" fill="#0FE3AF"/>
<path id="Vector" d="M29.4682 25.5577C29.2904 25.3684 28.6628 24.8085 27.5091 24.0679C26.3468 23.3207 25.4896 22.8549 25.2438 22.7462C25.2221 22.7366 25.1982 22.7331 25.1747 22.736C25.1512 22.739 25.1289 22.7483 25.1103 22.7629C24.7142 23.0718 24.0474 23.6391 24.0117 23.6698C23.7808 23.8676 23.7808 23.8676 23.5918 23.806C23.2594 23.697 22.2269 23.1488 21.3272 22.247C20.4275 21.3453 19.851 20.2872 19.742 19.9552C19.6797 19.7658 19.6797 19.7658 19.8782 19.535C19.9088 19.4992 20.4765 18.8324 20.7854 18.4367C20.8 18.4181 20.8093 18.3958 20.8123 18.3723C20.8152 18.3488 20.8117 18.3249 20.8021 18.3032C20.6935 18.057 20.2276 17.2002 19.4804 16.038C18.7387 14.8846 18.1796 14.2569 17.9902 14.0792C17.9729 14.0628 17.9514 14.0514 17.9281 14.0462C17.9048 14.041 17.8805 14.0421 17.8578 14.0496C17.1959 14.277 16.5573 14.5672 15.9507 14.9162C15.3651 15.2566 14.8107 15.6481 14.294 16.086C14.276 16.1013 14.2624 16.1213 14.2549 16.1437C14.2473 16.1661 14.246 16.1902 14.2511 16.2133C14.3223 16.545 14.6625 17.9297 15.7181 19.8476C16.7953 21.805 17.5417 22.8079 19.1236 24.3842C20.7054 25.9606 21.7399 26.752 23.6994 27.8291C25.6173 28.8848 27.0027 29.2253 27.3337 29.2958C27.3568 29.3009 27.381 29.2995 27.4034 29.292C27.4259 29.2844 27.4459 29.2709 27.4614 29.2529C27.8992 28.7362 28.2905 28.1818 28.6308 27.5962C28.9798 26.9896 29.27 26.351 29.4975 25.6892C29.5048 25.6667 29.5059 25.6426 29.5007 25.6195C29.4956 25.5964 29.4843 25.575 29.4682 25.5577V25.5577Z" fill="#0152A8"/>
</g>
</g>
</g>
</g>
</g>
</g>
</g>
<defs>
<clipPath id="clip0_1_282">
<rect width="1920" height="8616" fill="white" transform="translate(-897 -8087)"/>
</clipPath>
</defs>
</svg>
